<?xml version="1.0" encoding="utf-8"?>
<!-- Generator: Adobe Illustrator 20.0.0, SVG Export Plug-In . SVG Version: 6.00 Build 0)  -->
<svg version="1.1" id="Layer_1" xmlns="http://www.w3.org/2000/svg" xmlns:xlink="http://www.w3.org/1999/xlink" x="0px" y="0px"
	 viewBox="0 0 800 200" style="enable-background:new 0 0 800 200;" xml:space="preserve">
<style type="text/css">
	.st0{fill:#FFFFFF;}
	.st1{font-family:'Montserrat-Regular';}
	.st2{font-size:193.267px;}
</style>
<text transform="matrix(0.9685 0 0 1 148.0889 166.5586)" class="st0 st1 st2">ADEPT</text>
<g>
	<g>
		<path class="st0" d="M138.7,30.6C128.5,19.2,115,8.6,81.5,8.3c-13.1-0.1-33,3-48.6,19.4c-9.4,9.9-16.3,22.4-14.3,42.9
			c0.4,4.4,6.8,9.6,2.3,18.2c0,0-9.6,16.8-9.2,19.7c0,0-0.2,5.1,7.8,5.3c0,0,2,0.3,1.4,4.6l-0.1,6.4c0,0,0.2,1.9,3.7,3.1
			c0,0,0.7,0.7-0.3,1.9c0,0-1.8,2,1.3,6.4c1.2,1.6,3.1,3.6,1.9,7.8c0,0-1.5,8,1.7,9.9c0,0,3.6,4.2,17.9,2.5c5-0.6,14.3-3,19.8,3.9
			c0,0,13.2,25.1,14.2,31.1c0,0,22.6-40.1,50.1-46.3c0,0-6.7-15.1,6.9-34.7c0,0,17.1-22.5,17.6-34.9
			C155.6,75.3,160.1,54.4,138.7,30.6z M116.4,105.4c-11.6,0.4-12.2-7.4-17.7-13.4c-0.8,0.1-1.6,0.1-2.4,0.2
			c-13.6,0.4-11.1-14.1-16.4-18c-12.7-9.5-30.7-1.2-40.1-10.8c-3-3.1-5.6-6-6-10c-1-9.7,1.3-13.9,6.1-19
			c12.8-13.6,29.3-16.4,41-16.4c31.3,0.2,42.2,9.6,50.7,19.1c14.1,15.7,15,29.3,14.7,34.2c0,0.6,0.1,1.2,0.1,1.8
			C146.5,90.9,133,104.9,116.4,105.4z"/>
	</g>
</g>
</svg>
