<?xml version="1.0" encoding="iso-8859-1"?>
<!-- Generator: Adobe Illustrator 19.0.0, SVG Export Plug-In . SVG Version: 6.00 Build 0)  -->
<svg version="1.1" id="Layer_1" xmlns="http://www.w3.org/2000/svg" xmlns:xlink="http://www.w3.org/1999/xlink" x="0px" y="0px"
	 viewBox="0 0 512 512" style="enable-background:new 0 0 512 512;" xml:space="preserve">
<circle style="fill:#FFFFFF;" cx="256" cy="256" r="256"/>
<path style="fill:#EEEEEE;" d="M500.301,332.692L296.34,128.735c-0.584-0.33-1.277-0.54-2.015-0.54h-76.659
	c-2.34,0-4.268,1.933-4.268,4.27v80.929h-80.927c-2.34,0-4.27,1.928-4.27,4.268v76.698c0,0.783,0.205,1.482,0.576,2.092l1.6,1.603
	l83.592,83.594l1.6,1.603l117.064,117.066C412.362,475.333,475.297,412.413,500.301,332.692z"/>
<path style="fill:#2E3642;" d="M217.659,383.8c-2.342,0-4.26-1.917-4.26-4.262V132.457c0-2.342,1.917-4.257,4.26-4.257h76.682
	c2.337,0,4.262,1.915,4.262,4.257v247.081c0,2.345-1.925,4.262-4.262,4.262H217.659z"/>
<path style="fill:#2E3642;" d="M383.8,294.341c0,2.342-1.917,4.26-4.257,4.26H132.457c-2.34,0-4.262-1.917-4.262-4.26v-76.68
	c0-2.342,1.923-4.268,4.262-4.268h247.086c2.34,0,4.257,1.925,4.257,4.268V294.341z"/>
<path style="fill:#5D6D7E;" d="M128.195,217.661v38.336H383.8v-38.336c0-2.342-1.917-4.268-4.257-4.268H132.457
	C130.12,213.394,128.195,215.319,128.195,217.661z"/>
<g>
	<polygon style="fill:#FFFFFF;" points="246.162,164.828 256,147.781 265.841,164.828 	"/>
	<polygon style="fill:#FFFFFF;" points="265.841,347.177 256,364.214 246.162,347.177 	"/>
	<polygon style="fill:#FFFFFF;" points="347.174,246.159 364.214,255.997 347.174,265.841 	"/>
	<polygon style="fill:#FFFFFF;" points="164.823,265.841 147.784,255.997 164.823,246.159 	"/>
</g>
<g>
</g>
<g>
</g>
<g>
</g>
<g>
</g>
<g>
</g>
<g>
</g>
<g>
</g>
<g>
</g>
<g>
</g>
<g>
</g>
<g>
</g>
<g>
</g>
<g>
</g>
<g>
</g>
<g>
</g>
</svg>
