<?xml version="1.0" encoding="iso-8859-1"?>
<!-- Generator: Adobe Illustrator 19.0.0, SVG Export Plug-In . SVG Version: 6.00 Build 0)  -->
<svg version="1.1" id="Layer_1" xmlns="http://www.w3.org/2000/svg" xmlns:xlink="http://www.w3.org/1999/xlink" x="0px" y="0px"
	 viewBox="0 0 356.923 356.923" style="enable-background:new 0 0 356.923 356.923;" xml:space="preserve">
<circle style="fill:#FFFFFF;" cx="178.462" cy="178.462" r="178.462"/>
<rect x="65.649" y="267.495" style="fill:#2E3642;" width="225.649" height="10.188"/>
<g>
	<rect x="65.649" y="231.926" style="fill:#2E3642;" width="17.529" height="28.884"/>
	<rect x="88.763" y="205.145" style="fill:#2E3642;" width="17.524" height="55.678"/>
	<rect x="111.889" y="217.477" style="fill:#2E3642;" width="17.529" height="43.33"/>
	<rect x="135.015" y="169.551" style="fill:#2E3642;" width="17.526" height="91.274"/>
	<rect x="158.129" y="183.655" style="fill:#2E3642;" width="17.526" height="77.172"/>
	<rect x="181.268" y="134.868" style="fill:#2E3642;" width="17.526" height="125.932"/>
	<rect x="204.382" y="195.323" style="fill:#2E3642;" width="17.524" height="65.487"/>
	<rect x="227.52" y="208.271" style="fill:#2E3642;" width="17.526" height="52.537"/>
	<rect x="250.634" y="155.742" style="fill:#2E3642;" width="17.526" height="105.076"/>
	<rect x="273.748" y="99.417" style="fill:#2E3642;" width="17.529" height="161.403"/>
</g>
<path style="fill:#2E3642;" d="M74.405,211.456c-0.276,0-0.556-0.084-0.802-0.254c-0.652-0.441-0.817-1.329-0.374-1.982
	l23.586-34.594l22.991,1.814l23.222-46.934l23.237,6.555l23.884-37.888l24.162,46.565l21.386,20.606l22.425-60.487l23.232-33.167
	c0.455-0.65,1.342-0.802,1.989-0.352c0.645,0.453,0.8,1.342,0.347,1.986l-23.018,32.866l-23.818,64.236l-24.866-23.956l-0.106-0.209
	l-21.979-42.353l-22.366,35.478l-23.01-6.489l-23.025,46.54l-23.264-1.836l-22.658,33.226
	C75.306,211.234,74.86,211.456,74.405,211.456z"/>
<g>
	<circle style="fill:#2E3642;" cx="97.526" cy="176.123" r="5.095"/>
	<circle style="fill:#2E3642;" cx="120.665" cy="177.945" r="5.095"/>
	<circle style="fill:#2E3642;" cx="143.778" cy="131.2" r="5.098"/>
	<circle style="fill:#2E3642;" cx="166.892" cy="137.723" r="5.095"/>
	<circle style="fill:#2E3642;" cx="190.031" cy="101.046" r="5.093"/>
	<circle style="fill:#2E3642;" cx="213.145" cy="145.6" r="5.093"/>
	<circle style="fill:#2E3642;" cx="236.283" cy="167.877" r="5.095"/>
	<circle style="fill:#2E3642;" cx="259.397" cy="105.526" r="5.095"/>
	<circle style="fill:#2E3642;" cx="282.511" cy="72.512" r="5.095"/>
	<circle style="fill:#2E3642;" cx="74.407" cy="210.018" r="5.093"/>
</g>
<g>
</g>
<g>
</g>
<g>
</g>
<g>
</g>
<g>
</g>
<g>
</g>
<g>
</g>
<g>
</g>
<g>
</g>
<g>
</g>
<g>
</g>
<g>
</g>
<g>
</g>
<g>
</g>
<g>
</g>
</svg>
